<?xml version="1.0" encoding="iso-8859-1"?>
<!-- Generator: Adobe Illustrator 19.0.0, SVG Export Plug-In . SVG Version: 6.00 Build 0)  -->
<svg version="1.1" id="Layer_1" xmlns="http://www.w3.org/2000/svg" xmlns:xlink="http://www.w3.org/1999/xlink" x="0px" y="0px"
	 viewBox="0 0 512 512" style="enable-background:new 0 0 512 512;" xml:space="preserve">
<g>
	<g>
		<path d="M249.308,329.013l-11.954-61.73c-1.675,2.688,0.03,0.472-27.264,32.874c-10.177,12.078-27.997,13.709-40.193,4.041
			c-12.219,9.684-30.037,8.017-40.195-4.042c-27.035-32.093-25.337-29.99-26.531-31.718c-7.203-10.44-6.792-24.282,1.145-34.339
			l-8.581-16.649c-4.17-1.61-7.899-4.283-10.806-7.856c-9.084-11.167-7.399-27.559,3.773-36.644l22.855-18.589l-15.716-32.277
			c-10.925,9.754-27.274,24.218-53.104,47.328c-6.792,6.09-8.617,15.999-4.437,24.109l35.075,68.053
			c5.562,10.792,19.598,14.408,29.744,6.901l-11.726,60.541c-1.326,6.846,3.951,13.17,10.854,13.17c4.243,0,9.327,0,15.014,0
			v145.762c0,13.285,10.769,24.053,24.053,24.053c13.284,0,24.053-10.769,24.053-24.053V342.183c3.319,0,6.649,0,9.967,0v145.763
			c0,13.285,10.769,24.053,24.053,24.053s24.053-10.769,24.053-24.053V342.183c5.688,0,10.772,0,15.014,0
			C245.393,342.183,250.633,335.851,249.308,329.013z"/>
	</g>
</g>
<g>
	<g>
		<path d="M226.607,110.68c-3.962-2.421-8.257-4.093-12.876-5.019c3.217,7.085,4.69,14.842,4.143,22.953L226.607,110.68z"/>
	</g>
</g>
<g>
	<g>
		<path d="M126.705,105.541c-4.925,0.804-9.259,2.22-13.138,4.049l8.881,18.239C122.056,120.13,123.503,112.539,126.705,105.541z"/>
	</g>
</g>
<g>
	<g>
		<path d="M170.353,4.549c-22.779,0-41.245,18.466-41.245,41.245c-0.001,15.529,8.583,29.047,21.263,36.083
			c6.043-2.766,12.752-4.32,19.821-4.32c7.139,0,13.91,1.583,20,4.401c12.757-7.014,21.406-20.578,21.406-36.164
			C211.598,23.015,193.132,4.549,170.353,4.549z"/>
	</g>
</g>
<g>
	<g>
		<path d="M162.598,272.442c-7.38-8.761-4.085-4.849-17.096-20.295l11.554-13.355c-5.252-7.677-12.812-14.384-21.198-18.341
			l-19.382,22.403c-4.53,5.238-4.517,12.979-0.119,18.2l24.804,29.446c5.053,5.998,13.915,6.604,19.748,1.689
			C166.829,287.203,167.585,278.361,162.598,272.442z"/>
	</g>
</g>
<g>
	<g>
		<path d="M241.633,184.576l-34.925-28.406c-9.062,10.724-22.357,17-36.517,17c-14.699,0-27.98-6.724-36.762-17.283l-35.272,28.69
			c-4.739,3.854-5.458,10.823-1.602,15.562c3.854,4.737,10.823,5.458,15.562,1.601l22.596-18.379l70.958,0.482l22.004,17.897
			c4.791,3.897,11.758,3.071,15.561-1.602C247.091,195.398,246.373,188.431,241.633,184.576z"/>
	</g>
</g>
<g>
	<g>
		<path d="M223.313,242.855L203.971,220.5c-8.211,3.901-15.808,10.545-21.152,18.392c7.647,8.839,5.513,6.372,11.465,13.252
			l-17.096,20.294c-4.985,5.923-4.228,14.763,1.692,19.75c5.973,5.033,14.824,4.157,19.748-1.688
			c9.992-11.861,3.948-4.686,24.805-29.446C227.774,255.903,227.894,248.149,223.313,242.855z"/>
	</g>
</g>
<g>
	<g>
		<circle cx="170.195" cy="125.365" r="32.82"/>
	</g>
</g>
<g>
	<g>
		<path d="M429.539,94.204c-2.05,0,1.831,0-105.445,0c-25.039,0-45.585,20.04-46.367,44.923l-7.178,61.607
			c-7.312-20.373-14.557-40.762-19.57-55.349c-2.415-7.027-5.261-13.141-8.523-18.353l-13.567,27.863l22.2,18.057
			c11.167,9.083,12.859,25.472,3.771,36.645c-4.969,6.108-12.337,9.61-20.213,9.61c-0.02,0-0.04-0.002-0.06-0.002
			c13.018,36.218,25.667,70.827,25.872,71.383c3.157,8.635,11.523,13.49,20.093,13.49c9.812,0,18.283-7.353,19.446-17.336
			c17.979-154.307,16.905-144.577,16.911-146.183c0.011-2.146,1.755-3.876,3.9-3.871c2.144,0.006,3.878,1.746,3.878,3.89v142.015
			h0.009v205.886c0,12.992,10.53,23.523,23.523,23.523c12.993,0,23.523-10.531,23.523-23.523V282.591h10.157v205.886
			c0,12.992,10.53,23.523,23.523,23.523c12.993,0,23.523-10.531,23.523-23.523l-0.417-347.873c-0.002-2.247,1.804-4.077,4.051-4.104
			c2.247-0.026,4.097,1.763,4.145,4.011l-0.348,143.914c-0.026,10.826,8.728,19.624,19.555,19.65c0.017,0,0.031,0,0.048,0
			c10.804,0,19.575-8.745,19.601-19.555l0.348-144.013c0-0.05,0-0.099,0-0.147C475.801,114.91,454.991,94.204,429.539,94.204z"/>
	</g>
</g>
<g>
	<g>
		<circle cx="376.81" cy="40.627" r="40.627"/>
	</g>
</g>
<g>
</g>
<g>
</g>
<g>
</g>
<g>
</g>
<g>
</g>
<g>
</g>
<g>
</g>
<g>
</g>
<g>
</g>
<g>
</g>
<g>
</g>
<g>
</g>
<g>
</g>
<g>
</g>
<g>
</g>
</svg>
