<?xml version="1.0" encoding="iso-8859-1"?>
<!-- Generator: Adobe Illustrator 18.0.0, SVG Export Plug-In . SVG Version: 6.00 Build 0)  -->
<!DOCTYPE svg PUBLIC "-//W3C//DTD SVG 1.1//EN" "http://www.w3.org/Graphics/SVG/1.1/DTD/svg11.dtd">
<svg version="1.1" id="Capa_1" xmlns="http://www.w3.org/2000/svg" xmlns:xlink="http://www.w3.org/1999/xlink" x="0px" y="0px"
	 viewBox="0 0 323.108 323.108" style="enable-background:new 0 0 323.108 323.108;" xml:space="preserve">
<g>
	<circle cx="166.26" cy="63.795" r="23.065"/>
	<circle cx="57.678" cy="51.169" r="24.17"/>
	<path d="M322.274,236.461l-27.856-52.234c-1.516-2.843-4.693-4.222-7.694-3.592h-24.775c-0.941,0-1.75,0.137-2.462,0.374
		l-24.637-2.632c-0.184-0.587-0.41-1.168-0.703-1.734c0,0-39.572-75.783-40.295-77.052c-1.634-2.87-5.099-4.397-8.655-4.397h-38.341
		c-3.556,0-7.021,1.525-8.654,4.396c-0.495,0.87-15.54,29.422-25.426,48.191l-3.672-53.217c-0.412-5.977-5.493-10.501-11.415-10.332
		h-80.02c-5.94-0.171-11.004,4.354-11.417,10.332l-6.225,90.213c-0.422,6.124,4.2,11.432,10.325,11.855
		c6.193,0.414,11.436-4.252,11.855-10.325l4.222-61.182l0.222,157.268c0,7.182,5.52,13.363,12.694,13.701
		c7.66,0.361,13.984-5.743,13.984-13.324l0-83.845c0-2.322,1.698-4.396,4.009-4.617c2.652-0.253,4.883,1.826,4.883,4.426l0,83.659
		c0,7.182,5.52,13.363,12.694,13.701c7.66,0.361,13.984-5.743,13.984-13.324l0.222-154.831l4.028,58.368
		c0.405,5.864,5.288,10.352,11.078,10.352c3.874,0,7.534-2.123,9.165-5.059c1.596-2.873,22.062-41.711,22.062-41.711l-6.641,57.304
		c-0.299,2.201,0.367,4.423,1.828,6.096c1.436,1.645,3.503,2.595,5.683,2.627v67.042c0,6.879,5.613,13.024,12.491,13.15
		c7.139,0.131,12.968-5.618,12.968-12.727v-63.032c0-2.216,1.62-4.195,3.826-4.406c2.531-0.241,4.66,1.742,4.66,4.223v62.793
		c0,6.879,5.613,13.024,12.491,13.15c7.139,0.131,12.968-5.618,12.968-12.727v-67.464c2.18-0.032,4.247-0.982,5.683-2.627
		c1.461-1.673,2.127-3.896,1.828-6.096l-6.641-57.305l18.714,36.523c1.888,3.64,5.591,5.727,9.426,5.727
		c0.801,0,1.606-0.103,2.402-0.294l27.321,2.86l-8.228,56.272c-0.8,2.929,0.267,6.129,2.886,7.98c1.282,0.906,2.85,1.321,4.42,1.321
		h1.582v27.051c0,4.523,3.413,8.472,7.926,8.764c4.945,0.32,9.057-3.596,9.057-8.473V263.06c0-1.538,1.247-2.785,2.785-2.785l0,0
		c1.538,0,2.785,1.247,2.785,2.785v24.266c0,4.522,3.413,8.471,7.926,8.764c4.945,0.32,9.057-3.596,9.057-8.473v-27.342h1.582
		c1.57,0,3.138-0.415,4.42-1.321c2.619-1.851,3.686-5.052,2.886-7.98l-3.941-26.954l10.185,19.099
		c1.273,2.389,3.72,3.748,6.249,3.748c1.123,0,2.264-0.269,3.323-0.834C322.808,244.194,324.113,239.908,322.274,236.461z
		 M66.608,137.108l-6.248,9.831c-1.248,1.964-4.115,1.964-5.364,0l-6.248-9.831c-0.455-0.716-0.605-1.585-0.416-2.413l5.619-29.793
		l-3.689-3.689c-1.229-1.229-1.229-3.221,0-4.45l5.192-5.191c1.229-1.229,3.221-1.229,4.45,0l5.191,5.191
		c1.229,1.229,1.229,3.221,0,4.45l-3.689,3.689l5.619,29.793C67.213,135.523,67.063,136.391,66.608,137.108z"/>
	<path d="M239.976,171.66h9.969c1.385,0,2.526-1.075,2.613-2.457c0.334-5.347,2.048-10.602,5.082-15.198
		c-0.009,0.24-0.036,0.475-0.036,0.717c0,10.134,8.215,18.349,18.349,18.349c10.134,0,18.349-8.215,18.349-18.349
		c0-0.414-0.035-0.819-0.062-1.227c3.248,4.715,5.069,10.164,5.416,15.708c0.086,1.382,1.228,2.457,2.613,2.457h9.969
		c0.749,0,1.462-0.323,1.959-0.883c0.497-0.56,0.731-1.305,0.643-2.049c-1.362-11.482-10.622-20.54-22.195-21.596
		c-2.889-6.342-9.268-10.76-16.692-10.76c-7.44,0-13.831,4.436-16.711,10.8c-11.419,1.196-20.519,10.184-21.868,21.557
		c-0.088,0.743,0.146,1.489,0.643,2.049C238.514,171.336,239.227,171.66,239.976,171.66z"/>
</g>
<g>
</g>
<g>
</g>
<g>
</g>
<g>
</g>
<g>
</g>
<g>
</g>
<g>
</g>
<g>
</g>
<g>
</g>
<g>
</g>
<g>
</g>
<g>
</g>
<g>
</g>
<g>
</g>
<g>
</g>
</svg>
